<mxfile host="app.diagrams.net" modified="2023-09-16T22:09:17.765Z" agent="Mozilla/5.0 (Windows NT 10.0; Win64; x64) AppleWebKit/537.36 (KHTML, like Gecko) Chrome/116.0.0.0 Safari/537.36 Edg/116.0.1938.81" etag="s9OkktiWNnyUHl8SYoXz" version="21.7.5" type="github">
  <diagram id="R2lEEEUBdFMjLlhIrx00" name="Page-1">
    <mxGraphModel dx="1188" dy="1754" grid="1" gridSize="10" guides="1" tooltips="1" connect="1" arrows="1" fold="1" page="1" pageScale="1" pageWidth="850" pageHeight="1100" math="0" shadow="0" extFonts="Permanent Marker^https://fonts.googleapis.com/css?family=Permanent+Marker">
      <root>
        <mxCell id="0" />
        <mxCell id="1" parent="0" />
        <mxCell id="FihGMdg51Uu1A-bptJt_-45" style="edgeStyle=orthogonalEdgeStyle;rounded=0;orthogonalLoop=1;jettySize=auto;html=1;exitX=-0.01;exitY=0.089;exitDx=0;exitDy=0;exitPerimeter=0;endArrow=ERzeroToMany;endFill=0;" edge="1" parent="1" source="FihGMdg51Uu1A-bptJt_-4">
          <mxGeometry relative="1" as="geometry">
            <mxPoint x="80" y="-800" as="targetPoint" />
            <Array as="points">
              <mxPoint x="82" y="-999" />
              <mxPoint x="40" y="-1000" />
              <mxPoint x="40" y="-800" />
            </Array>
          </mxGeometry>
        </mxCell>
        <mxCell id="FihGMdg51Uu1A-bptJt_-3" style="graphMlID=entity0;gradientDirection=east;shape=swimlane;startSize=30;rounded=1;arcSize=5;collapsible=0;fillColor=none;strokeColor=#000000;strokeWidth=1.0;swimlaneFillColor=none;" vertex="1" parent="1">
          <mxGeometry x="80" y="-1040" width="273.52" height="150" as="geometry" />
        </mxCell>
        <mxCell id="FihGMdg51Uu1A-bptJt_-4" value="&lt;font color=&quot;#000000&quot;&gt;tbplano_de_aula_plano_de_curso_id&lt;br&gt;tbplano_de_curso_id&lt;br&gt;tbplano_de_aula_id&lt;br&gt;created_at&lt;br&gt;updated_at&lt;br&gt;deleted_at&#x9;&#x9;&#x9;&#x9;&#x9;&#x9;&lt;/font&gt;" style="text;html=1;spacing=0;align=left;fontFamily=courier;fontSize=12;fontStyle=0;=center;fontColor=#c4c4c4" vertex="1" parent="FihGMdg51Uu1A-bptJt_-3">
          <mxGeometry x="2" y="31.66796875" width="222" height="100" as="geometry" />
        </mxCell>
        <mxCell id="FihGMdg51Uu1A-bptJt_-5" value="&lt;font color=&quot;#000000&quot;&gt;tbplano_de_aula_plano_de_curso&lt;/font&gt;" style="text;html=1;spacing=0;align=center;fontFamily=courier;fontSize=12;fontStyle=0;=center;fontColor=#ffffff" vertex="1" parent="FihGMdg51Uu1A-bptJt_-3">
          <mxGeometry x="25.76" width="222" height="22" as="geometry" />
        </mxCell>
        <mxCell id="FihGMdg51Uu1A-bptJt_-43" style="rounded=0;orthogonalLoop=1;jettySize=auto;html=1;entryX=0;entryY=0.15;entryDx=0;entryDy=0;entryPerimeter=0;endArrow=ERzeroToMany;endFill=0;" edge="1" parent="1" target="FihGMdg51Uu1A-bptJt_-28">
          <mxGeometry relative="1" as="geometry">
            <mxPoint x="310" y="-800" as="sourcePoint" />
          </mxGeometry>
        </mxCell>
        <mxCell id="FihGMdg51Uu1A-bptJt_-7" style="graphMlID=entity0;gradientDirection=east;shape=swimlane;startSize=30;rounded=1;arcSize=5;collapsible=0;fillColor=none;strokeColor=#000000;strokeWidth=1.0;swimlaneFillColor=none;" vertex="1" parent="1">
          <mxGeometry x="80" y="-840" width="234.76" height="300" as="geometry" />
        </mxCell>
        <mxCell id="FihGMdg51Uu1A-bptJt_-8" value="&lt;font color=&quot;#000000&quot;&gt;tbplano_de_aula_id&lt;br&gt;tbturmas_id&lt;br&gt;tbplano_de_curso_id&lt;br&gt;tbfuncionarios_id&lt;br&gt;tbperiodos_id&lt;br&gt;tbperiododeavaliacao_id&lt;br&gt;tbplano_de_aula_titulo&lt;br&gt;tbplano_de_aula_qtd_aulas&lt;br&gt;tbplano_de_aula_metodologia&lt;br&gt;tbplano_de_aula_recursos&lt;br&gt;tbplano_de_aula_avaliacao&lt;br&gt;tbplano_de_aula_inicio&lt;br&gt;tbplano_de_aula_fim&lt;br&gt;created_at&lt;br&gt;updated_at&lt;br&gt;deleted_at&lt;br&gt;tbplano_de_aula_cor_principal&#x9;&#x9;&#x9;&#x9;&#x9;&#x9;&lt;/font&gt;" style="text;html=1;spacing=0;align=left;fontFamily=courier;fontSize=12;fontStyle=0;=center;fontColor=#c4c4c4" vertex="1" parent="FihGMdg51Uu1A-bptJt_-7">
          <mxGeometry x="2" y="31.67" width="189" height="258.33" as="geometry" />
        </mxCell>
        <mxCell id="FihGMdg51Uu1A-bptJt_-9" value="&lt;font color=&quot;#000000&quot;&gt;tbplano_de_aula&lt;/font&gt;" style="text;html=1;spacing=0;align=center;fontFamily=courier;fontSize=12;fontStyle=0;=center;fontColor=#ffffff" vertex="1" parent="FihGMdg51Uu1A-bptJt_-7">
          <mxGeometry x="22.88" width="189" height="22" as="geometry" />
        </mxCell>
        <mxCell id="FihGMdg51Uu1A-bptJt_-48" style="edgeStyle=orthogonalEdgeStyle;rounded=0;orthogonalLoop=1;jettySize=auto;html=1;endArrow=ERzeroToMany;endFill=0;" edge="1" parent="1">
          <mxGeometry relative="1" as="geometry">
            <mxPoint x="80" y="-410" as="sourcePoint" />
            <mxPoint x="80" y="-230" as="targetPoint" />
            <Array as="points">
              <mxPoint x="80" y="-419" />
              <mxPoint x="40" y="-419" />
              <mxPoint x="40" y="-230" />
            </Array>
          </mxGeometry>
        </mxCell>
        <mxCell id="FihGMdg51Uu1A-bptJt_-10" style="graphMlID=entity0;gradientDirection=east;shape=swimlane;startSize=30;rounded=1;arcSize=5;collapsible=0;fillColor=none;strokeColor=#000000;strokeWidth=1.0;swimlaneFillColor=none;" vertex="1" parent="1">
          <mxGeometry x="80" y="-480" width="239.76" height="150" as="geometry" />
        </mxCell>
        <mxCell id="FihGMdg51Uu1A-bptJt_-11" value="&lt;font color=&quot;#000000&quot;&gt;tbplano_de_aula_habilidade_id&lt;br&gt;tbplano_de_aula_id&lt;br&gt;tbbase_curricular_id&lt;br&gt;created_at&lt;br&gt;updated_at&lt;br&gt;deleted_at&#x9;&#x9;&#x9;&#x9;&#x9;&#x9;&lt;/font&gt;" style="text;html=1;spacing=0;align=left;fontFamily=courier;fontSize=12;fontStyle=0;=center;fontColor=#c4c4c4" vertex="1" parent="FihGMdg51Uu1A-bptJt_-10">
          <mxGeometry x="2" y="31.66796875" width="194" height="100" as="geometry" />
        </mxCell>
        <mxCell id="FihGMdg51Uu1A-bptJt_-12" value="&lt;font color=&quot;#000000&quot;&gt;tbplano_de_aula_habilidade&lt;/font&gt;" style="text;html=1;spacing=0;align=center;fontFamily=courier;fontSize=12;fontStyle=0;=center;fontColor=#ffffff" vertex="1" parent="FihGMdg51Uu1A-bptJt_-10">
          <mxGeometry x="22.88" width="194" height="22" as="geometry" />
        </mxCell>
        <mxCell id="FihGMdg51Uu1A-bptJt_-13" style="graphMlID=entity0;gradientDirection=east;shape=swimlane;startSize=30;rounded=1;arcSize=5;collapsible=0;fillColor=none;strokeColor=default;strokeWidth=1.0;swimlaneFillColor=none;" vertex="1" parent="1">
          <mxGeometry x="80" y="-280" width="178.8" height="300" as="geometry" />
        </mxCell>
        <mxCell id="FihGMdg51Uu1A-bptJt_-14" value="&lt;font color=&quot;#000000&quot;&gt;tbbase_curricular_id&lt;br&gt;disciplina&lt;br&gt;origem&lt;br&gt;etapa&lt;br&gt;mapa_turma&lt;br&gt;conjunto&lt;br&gt;ativo&lt;br&gt;componente&lt;br&gt;ano_faixa&lt;br&gt;campo_atuacao&lt;br&gt;pratica_linguagem&lt;br&gt;objeto_conhecimento&lt;br&gt;codigo&lt;br&gt;habilidade&lt;br&gt;created_at&lt;br&gt;updated_at&lt;br&gt;deleted_at&#x9;&#x9;&#x9;&#x9;&#x9;&#x9;&lt;/font&gt;" style="text;html=1;spacing=0;align=left;fontFamily=courier;fontSize=12;fontStyle=0;=center;fontColor=#c4c4c4;fillColor=none;strokeColor=none;swimlaneFillColor=none;" vertex="1" parent="FihGMdg51Uu1A-bptJt_-13">
          <mxGeometry x="2" y="31.67" width="146" height="268.33" as="geometry" />
        </mxCell>
        <mxCell id="FihGMdg51Uu1A-bptJt_-15" value="&lt;font color=&quot;#000000&quot;&gt;tbbase_curricular&lt;/font&gt;" style="text;html=1;spacing=0;align=center;fontFamily=courier;fontSize=12;fontStyle=0;=center;fontColor=#ffffff;fillColor=none;strokeColor=none;swimlaneFillColor=none;" vertex="1" parent="FihGMdg51Uu1A-bptJt_-13">
          <mxGeometry x="16.4" width="146" height="22" as="geometry" />
        </mxCell>
        <mxCell id="FihGMdg51Uu1A-bptJt_-27" style="graphMlID=entity0;gradientDirection=east;shape=swimlane;startSize=30;rounded=1;arcSize=5;collapsible=0;fillColor=none;strokeColor=#000000;strokeWidth=1.0;swimlaneFillColor=none;" vertex="1" parent="1">
          <mxGeometry x="400" y="-800" width="377" height="226" as="geometry" />
        </mxCell>
        <mxCell id="FihGMdg51Uu1A-bptJt_-28" value="&lt;font color=&quot;#000000&quot;&gt;tbregistro_de_aula_id&lt;br&gt;tbplano_de_aula_id&lt;br&gt;tbbase_curricular_id&lt;br&gt;tbregistro_de_aula_titulo&lt;br&gt;tbregistro_de_aula_observacao&lt;br&gt;tbregistro_de_aula_data&lt;br&gt;tbregistro_de_aula_avaliacao_habilidade_trabalhada&lt;br&gt;created_at&lt;br&gt;updated_at&lt;br&gt;deleted_at&#x9;&#x9;&#x9;&#x9;&#x9;&#x9;&lt;/font&gt;" style="text;html=1;spacing=0;align=left;fontFamily=courier;fontSize=12;fontStyle=0;=center;fontColor=#c4c4c4" vertex="1" parent="FihGMdg51Uu1A-bptJt_-27">
          <mxGeometry x="2" y="31.66796875" width="301" height="176" as="geometry" />
        </mxCell>
        <mxCell id="FihGMdg51Uu1A-bptJt_-29" value="&lt;font color=&quot;#000000&quot;&gt;tbregistro_de_aula&lt;/font&gt;" style="text;html=1;spacing=0;align=center;fontFamily=courier;fontSize=12;fontStyle=0;=center;fontColor=#ffffff" vertex="1" parent="FihGMdg51Uu1A-bptJt_-27">
          <mxGeometry x="38" width="301" height="22" as="geometry" />
        </mxCell>
        <mxCell id="FihGMdg51Uu1A-bptJt_-30" style="graphMlID=entity0;gradientDirection=east;shape=swimlane;startSize=30;rounded=1;arcSize=5;collapsible=0;fillColor=none;strokeColor=#000000;strokeWidth=1.0;swimlaneFillColor=none;" vertex="1" parent="1">
          <mxGeometry x="400" y="-520" width="251.2" height="188" as="geometry" />
        </mxCell>
        <mxCell id="FihGMdg51Uu1A-bptJt_-31" value="&lt;font color=&quot;#000000&quot;&gt;tbplano_de_aula_anexos_id&lt;br&gt;tbplano_de_aula_id&lt;br&gt;tbplano_de_aula_anexo_filename&lt;br&gt;tbplano_de_aula_anexo_filetype&lt;br&gt;remote_path&lt;br&gt;created_at&lt;br&gt;updated_at&lt;br&gt;deleted_at&#x9;&#x9;&#x9;&#x9;&#x9;&#x9;&lt;/font&gt;" style="text;html=1;spacing=0;align=left;fontFamily=courier;fontSize=12;fontStyle=0;=center;fontColor=#c4c4c4" vertex="1" parent="FihGMdg51Uu1A-bptJt_-30">
          <mxGeometry x="2" y="31.66796875" width="204" height="138" as="geometry" />
        </mxCell>
        <mxCell id="FihGMdg51Uu1A-bptJt_-32" value="&lt;font color=&quot;#000000&quot;&gt;tbplano_de_aula_anexos&lt;/font&gt;" style="text;html=1;spacing=0;align=center;fontFamily=courier;fontSize=12;fontStyle=0;=center;fontColor=#ffffff" vertex="1" parent="FihGMdg51Uu1A-bptJt_-30">
          <mxGeometry x="23.6" width="204" height="22" as="geometry" />
        </mxCell>
        <mxCell id="FihGMdg51Uu1A-bptJt_-36" style="graphMlID=entity0;gradientDirection=east;shape=swimlane;startSize=30;rounded=1;arcSize=5;collapsible=0;strokeWidth=1.0;swimlaneFillColor=none;" vertex="1" parent="1">
          <mxGeometry x="400" y="-1040" width="360" height="180" as="geometry" />
        </mxCell>
        <mxCell id="FihGMdg51Uu1A-bptJt_-37" value="tbplano_de_curso_id integer primary key&lt;br&gt;tbfuncionarios_id integer foreign key&lt;br&gt;tbplano_de_curso_titulo string&amp;nbsp;&lt;br&gt;tbplano_de_curso_observacao longtext&lt;br&gt;created_at datetime&lt;br&gt;updated_at datetime&lt;br&gt;deleted_at datetime&lt;br&gt;tbperiododeavaliacao_id integer foreign key&lt;br&gt;tbplano_de_curso_areas_do_conhecimento string" style="text;html=1;spacing=0;align=left;fontFamily=courier;fontSize=12;fontStyle=0;=center;" vertex="1" parent="FihGMdg51Uu1A-bptJt_-36">
          <mxGeometry x="2" y="31.67" width="358" height="148.33" as="geometry" />
        </mxCell>
        <mxCell id="FihGMdg51Uu1A-bptJt_-38" value="&lt;font color=&quot;#000000&quot;&gt;tbplano_de_curso&lt;/font&gt;" style="text;html=1;spacing=0;align=center;fontFamily=courier;fontSize=12;fontStyle=0;=center;fontColor=#ffffff" vertex="1" parent="FihGMdg51Uu1A-bptJt_-36">
          <mxGeometry y="4" width="360" height="22" as="geometry" />
        </mxCell>
        <mxCell id="FihGMdg51Uu1A-bptJt_-41" style="rounded=0;orthogonalLoop=1;jettySize=auto;html=1;entryX=1;entryY=0.25;entryDx=0;entryDy=0;endArrow=ERzeroToMany;endFill=0;exitX=0;exitY=0.09;exitDx=0;exitDy=0;exitPerimeter=0;" edge="1" parent="1" source="FihGMdg51Uu1A-bptJt_-37" target="FihGMdg51Uu1A-bptJt_-3">
          <mxGeometry relative="1" as="geometry" />
        </mxCell>
        <mxCell id="FihGMdg51Uu1A-bptJt_-44" style="rounded=0;orthogonalLoop=1;jettySize=auto;html=1;entryX=-0.015;entryY=0.198;entryDx=0;entryDy=0;entryPerimeter=0;endArrow=ERzeroToMany;endFill=0;" edge="1" parent="1" target="FihGMdg51Uu1A-bptJt_-31">
          <mxGeometry relative="1" as="geometry">
            <mxPoint x="310" y="-800" as="sourcePoint" />
            <mxPoint x="412" y="-732" as="targetPoint" />
          </mxGeometry>
        </mxCell>
        <mxCell id="FihGMdg51Uu1A-bptJt_-46" style="edgeStyle=orthogonalEdgeStyle;rounded=0;orthogonalLoop=1;jettySize=auto;html=1;entryX=0;entryY=0.25;entryDx=0;entryDy=0;endArrow=ERzeroToMany;endFill=0;" edge="1" parent="1" target="FihGMdg51Uu1A-bptJt_-11">
          <mxGeometry relative="1" as="geometry">
            <mxPoint x="80" y="-790" as="sourcePoint" />
            <Array as="points">
              <mxPoint x="60" y="-790" />
              <mxPoint x="60" y="-423" />
            </Array>
          </mxGeometry>
        </mxCell>
      </root>
    </mxGraphModel>
  </diagram>
</mxfile>
